<?xml version="1.0" encoding="UTF-8" standalone="no"?>
<!DOCTYPE svg PUBLIC "-//W3C//DTD SVG 1.1//EN"
 "http://www.w3.org/Graphics/SVG/1.1/DTD/svg11.dtd">
<!-- Generated by graphviz version 2.40.1 (20161225.0304)
 -->
<!-- Title: dependencies Pages: 1 -->
<svg width="2343pt" height="284pt"
 viewBox="0.00 0.00 2343.00 284.00" xmlns="http://www.w3.org/2000/svg" xmlns:xlink="http://www.w3.org/1999/xlink">
<g id="graph0" class="graph" transform="scale(1 1) rotate(0) translate(4 280)">
<title>dependencies</title>
<polygon fill="#ffffff" stroke="transparent" points="-4,4 -4,-280 2339,-280 2339,4 -4,4"/>
<text text-anchor="start" x="1146.5091" y="-42.4" font-family="sans-serif" font-weight="bold" font-size="14.00" fill="#000000">Legend</text>
<polygon fill="#ffffb3" stroke="transparent" points="933.5,-10 933.5,-30 953.5,-30 953.5,-10 933.5,-10"/>
<text text-anchor="start" x="957.129" y="-15.4" font-family="sans-serif" font-size="14.00" fill="#000000"> &#160;Declarations</text>
<polygon fill="#8dd3c7" stroke="transparent" points="1046.5,-10 1046.5,-30 1066.5,-30 1066.5,-10 1046.5,-10"/>
<text text-anchor="start" x="1070.2251" y="-15.4" font-family="sans-serif" font-size="14.00" fill="#000000"> &#160;Module</text>
<polygon fill="#80b1d3" stroke="transparent" points="1132.5,-10 1132.5,-30 1152.5,-30 1152.5,-10 1132.5,-10"/>
<text text-anchor="start" x="1156.2812" y="-15.4" font-family="sans-serif" font-size="14.00" fill="#000000"> &#160;Bootstrap</text>
<polygon fill="#fdb462" stroke="transparent" points="1229.5,-10 1229.5,-30 1249.5,-30 1249.5,-10 1229.5,-10"/>
<text text-anchor="start" x="1253.1732" y="-15.4" font-family="sans-serif" font-size="14.00" fill="#000000"> &#160;Providers</text>
<polygon fill="#fb8072" stroke="transparent" points="1325.5,-10 1325.5,-30 1345.5,-30 1345.5,-10 1325.5,-10"/>
<text text-anchor="start" x="1349.2258" y="-15.4" font-family="sans-serif" font-size="14.00" fill="#000000"> &#160;Exports</text>
<g id="clust1" class="cluster">
<title>cluster_AppModule</title>
<polygon fill="none" stroke="#000000" stroke-dasharray="1,5" points="8,-70 8,-268 2327,-268 2327,-70 8,-70"/>
</g>
<g id="clust2" class="cluster">
<title>cluster_AppModule_declarations</title>
<polygon fill="none" stroke="#000000" points="168,-78 168,-130 2319,-130 2319,-78 168,-78"/>
</g>
<g id="clust17" class="cluster">
<title>cluster_AppModule_imports</title>
<polygon fill="none" stroke="#000000" points="16,-78 16,-130 160,-130 160,-78 16,-78"/>
</g>
<g id="clust19" class="cluster">
<title>cluster_AppModule_bootstrap</title>
<polygon fill="none" stroke="#000000" points="1147,-208 1147,-260 1271,-260 1271,-208 1147,-208"/>
</g>
<!-- AddTutorialComponent -->
<g id="node1" class="node">
<title>AddTutorialComponent</title>
<polygon fill="#ffffb3" stroke="#000000" points="2311.0393,-122 2160.9607,-122 2160.9607,-86 2311.0393,-86 2311.0393,-122"/>
<text text-anchor="middle" x="2236" y="-99.8" font-family="Times,serif" font-size="14.00" fill="#000000">AddTutorialComponent</text>
</g>
<!-- AppModule -->
<g id="node15" class="node">
<title>AppModule</title>
<polygon fill="#8dd3c7" stroke="#000000" points="1250.6571,-187 1247.6571,-191 1226.6571,-191 1223.6571,-187 1167.3429,-187 1167.3429,-151 1250.6571,-151 1250.6571,-187"/>
<text text-anchor="middle" x="1209" y="-164.8" font-family="Times,serif" font-size="14.00" fill="#000000">AppModule</text>
</g>
<!-- AddTutorialComponent&#45;&gt;AppModule -->
<g id="edge1" class="edge">
<title>AddTutorialComponent&#45;&gt;AppModule</title>
<path fill="none" stroke="#000000" d="M2236,-122.3228C2236,-145.6602 2236,-183 2236,-183 2236,-183 1260.8524,-183 1260.8524,-183"/>
<polygon fill="#000000" stroke="#000000" points="1260.8524,-179.5001 1250.8524,-183 1260.8523,-186.5001 1260.8524,-179.5001"/>
</g>
<!-- AppComponent -->
<g id="node2" class="node">
<title>AppComponent</title>
<polygon fill="#ffffb3" stroke="#000000" points="2142.9399,-122 2037.0601,-122 2037.0601,-86 2142.9399,-86 2142.9399,-122"/>
<text text-anchor="middle" x="2090" y="-99.8" font-family="Times,serif" font-size="14.00" fill="#000000">AppComponent</text>
</g>
<!-- AppComponent&#45;&gt;AppModule -->
<g id="edge2" class="edge">
<title>AppComponent&#45;&gt;AppModule</title>
<path fill="none" stroke="#000000" d="M2090,-122.2921C2090,-144.2057 2090,-178 2090,-178 2090,-178 1260.8998,-178 1260.8998,-178"/>
<polygon fill="#000000" stroke="#000000" points="1260.8998,-174.5001 1250.8998,-178 1260.8997,-181.5001 1260.8998,-174.5001"/>
</g>
<!-- CartProductComponent -->
<g id="node3" class="node">
<title>CartProductComponent</title>
<polygon fill="#ffffb3" stroke="#000000" points="2019.4832,-122 1870.5168,-122 1870.5168,-86 2019.4832,-86 2019.4832,-122"/>
<text text-anchor="middle" x="1945" y="-99.8" font-family="Times,serif" font-size="14.00" fill="#000000">CartProductComponent</text>
</g>
<!-- CartProductComponent&#45;&gt;AppModule -->
<g id="edge3" class="edge">
<title>CartProductComponent&#45;&gt;AppModule</title>
<path fill="none" stroke="#000000" d="M1945,-122.0267C1945,-142.7672 1945,-174 1945,-174 1945,-174 1260.6793,-174 1260.6793,-174"/>
<polygon fill="#000000" stroke="#000000" points="1260.6794,-170.5001 1250.6793,-174 1260.6793,-177.5001 1260.6794,-170.5001"/>
</g>
<!-- CongratsComponent -->
<g id="node4" class="node">
<title>CongratsComponent</title>
<polygon fill="#ffffb3" stroke="#000000" points="1852.8795,-122 1721.1205,-122 1721.1205,-86 1852.8795,-86 1852.8795,-122"/>
<text text-anchor="middle" x="1787" y="-99.8" font-family="Times,serif" font-size="14.00" fill="#000000">CongratsComponent</text>
</g>
<!-- CongratsComponent&#45;&gt;AppModule -->
<g id="edge4" class="edge">
<title>CongratsComponent&#45;&gt;AppModule</title>
<path fill="none" stroke="#000000" d="M1787,-122.1061C1787,-141.3391 1787,-169 1787,-169 1787,-169 1261.0339,-169 1261.0339,-169"/>
<polygon fill="#000000" stroke="#000000" points="1261.034,-165.5001 1251.0339,-169 1261.0339,-172.5001 1261.034,-165.5001"/>
</g>
<!-- DragdropComponent -->
<g id="node5" class="node">
<title>DragdropComponent</title>
<polygon fill="#ffffb3" stroke="#000000" points="1703.4748,-122 1568.5252,-122 1568.5252,-86 1703.4748,-86 1703.4748,-122"/>
<text text-anchor="middle" x="1636" y="-99.8" font-family="Times,serif" font-size="14.00" fill="#000000">DragdropComponent</text>
</g>
<!-- DragdropComponent&#45;&gt;AppModule -->
<g id="edge5" class="edge">
<title>DragdropComponent&#45;&gt;AppModule</title>
<path fill="none" stroke="#000000" d="M1636,-122.302C1636,-140.2699 1636,-165 1636,-165 1636,-165 1260.72,-165 1260.72,-165"/>
<polygon fill="#000000" stroke="#000000" points="1260.7201,-161.5001 1250.72,-165 1260.72,-168.5001 1260.7201,-161.5001"/>
</g>
<!-- HomeComponent -->
<g id="node6" class="node">
<title>HomeComponent</title>
<polygon fill="#ffffb3" stroke="#000000" points="1550.5451,-122 1435.4549,-122 1435.4549,-86 1550.5451,-86 1550.5451,-122"/>
<text text-anchor="middle" x="1493" y="-99.8" font-family="Times,serif" font-size="14.00" fill="#000000">HomeComponent</text>
</g>
<!-- HomeComponent&#45;&gt;AppModule -->
<g id="edge6" class="edge">
<title>HomeComponent&#45;&gt;AppModule</title>
<path fill="none" stroke="#000000" d="M1493,-122.027C1493,-138.3976 1493,-160 1493,-160 1493,-160 1260.9052,-160 1260.9052,-160"/>
<polygon fill="#000000" stroke="#000000" points="1260.9052,-156.5001 1250.9052,-160 1260.9051,-163.5001 1260.9052,-156.5001"/>
</g>
<!-- NavbarComponent -->
<g id="node7" class="node">
<title>NavbarComponent</title>
<polygon fill="#ffffb3" stroke="#000000" points="1417.0297,-122 1294.9703,-122 1294.9703,-86 1417.0297,-86 1417.0297,-122"/>
<text text-anchor="middle" x="1356" y="-99.8" font-family="Times,serif" font-size="14.00" fill="#000000">NavbarComponent</text>
</g>
<!-- NavbarComponent&#45;&gt;AppModule -->
<g id="edge7" class="edge">
<title>NavbarComponent&#45;&gt;AppModule</title>
<path fill="none" stroke="#000000" d="M1356,-122.1871C1356,-137.1824 1356,-156 1356,-156 1356,-156 1260.7311,-156 1260.7311,-156"/>
<polygon fill="#000000" stroke="#000000" points="1260.7311,-152.5001 1250.7311,-156 1260.7311,-159.5001 1260.7311,-152.5001"/>
</g>
<!-- NotfoundComponent -->
<g id="node8" class="node">
<title>NotfoundComponent</title>
<polygon fill="#ffffb3" stroke="#000000" points="1276.4902,-122 1141.5098,-122 1141.5098,-86 1276.4902,-86 1276.4902,-122"/>
<text text-anchor="middle" x="1209" y="-99.8" font-family="Times,serif" font-size="14.00" fill="#000000">NotfoundComponent</text>
</g>
<!-- NotfoundComponent&#45;&gt;AppModule -->
<g id="edge8" class="edge">
<title>NotfoundComponent&#45;&gt;AppModule</title>
<path fill="none" stroke="#000000" d="M1209,-122.1061C1209,-122.1061 1209,-140.991 1209,-140.991"/>
<polygon fill="#000000" stroke="#000000" points="1205.5001,-140.9909 1209,-150.991 1212.5001,-140.991 1205.5001,-140.9909"/>
</g>
<!-- OrderdetailsComponent -->
<g id="node9" class="node">
<title>OrderdetailsComponent</title>
<polygon fill="#ffffb3" stroke="#000000" points="1123.0212,-122 972.9788,-122 972.9788,-86 1123.0212,-86 1123.0212,-122"/>
<text text-anchor="middle" x="1048" y="-99.8" font-family="Times,serif" font-size="14.00" fill="#000000">OrderdetailsComponent</text>
</g>
<!-- OrderdetailsComponent&#45;&gt;AppModule -->
<g id="edge9" class="edge">
<title>OrderdetailsComponent&#45;&gt;AppModule</title>
<path fill="none" stroke="#000000" d="M1048,-122.1871C1048,-137.1824 1048,-156 1048,-156 1048,-156 1157.1194,-156 1157.1194,-156"/>
<polygon fill="#000000" stroke="#000000" points="1157.1195,-159.5001 1167.1194,-156 1157.1194,-152.5001 1157.1195,-159.5001"/>
</g>
<!-- ProductComponent -->
<g id="node10" class="node">
<title>ProductComponent</title>
<polygon fill="#ffffb3" stroke="#000000" points="954.3809,-122 829.6191,-122 829.6191,-86 954.3809,-86 954.3809,-122"/>
<text text-anchor="middle" x="892" y="-99.8" font-family="Times,serif" font-size="14.00" fill="#000000">ProductComponent</text>
</g>
<!-- ProductComponent&#45;&gt;AppModule -->
<g id="edge10" class="edge">
<title>ProductComponent&#45;&gt;AppModule</title>
<path fill="none" stroke="#000000" d="M892,-122.027C892,-138.3976 892,-160 892,-160 892,-160 1157.2318,-160 1157.2318,-160"/>
<polygon fill="#000000" stroke="#000000" points="1157.2318,-163.5001 1167.2318,-160 1157.2318,-156.5001 1157.2318,-163.5001"/>
</g>
<!-- ProductListComponent -->
<g id="node11" class="node">
<title>ProductListComponent</title>
<polygon fill="#ffffb3" stroke="#000000" points="811.1596,-122 664.8404,-122 664.8404,-86 811.1596,-86 811.1596,-122"/>
<text text-anchor="middle" x="738" y="-99.8" font-family="Times,serif" font-size="14.00" fill="#000000">ProductListComponent</text>
</g>
<!-- ProductListComponent&#45;&gt;AppModule -->
<g id="edge11" class="edge">
<title>ProductListComponent&#45;&gt;AppModule</title>
<path fill="none" stroke="#000000" d="M738,-122.302C738,-140.2699 738,-165 738,-165 738,-165 1157.2019,-165 1157.2019,-165"/>
<polygon fill="#000000" stroke="#000000" points="1157.2019,-168.5001 1167.2019,-165 1157.2019,-161.5001 1157.2019,-168.5001"/>
</g>
<!-- PuzzleComponent -->
<g id="node12" class="node">
<title>PuzzleComponent</title>
<polygon fill="#ffffb3" stroke="#000000" points="646.1499,-122 527.8501,-122 527.8501,-86 646.1499,-86 646.1499,-122"/>
<text text-anchor="middle" x="587" y="-99.8" font-family="Times,serif" font-size="14.00" fill="#000000">PuzzleComponent</text>
</g>
<!-- PuzzleComponent&#45;&gt;AppModule -->
<g id="edge12" class="edge">
<title>PuzzleComponent&#45;&gt;AppModule</title>
<path fill="none" stroke="#000000" d="M587,-122.1061C587,-141.3391 587,-169 587,-169 587,-169 1157.223,-169 1157.223,-169"/>
<polygon fill="#000000" stroke="#000000" points="1157.223,-172.5001 1167.223,-169 1157.223,-165.5001 1157.223,-172.5001"/>
</g>
<!-- ShoppingCartComponent -->
<g id="node13" class="node">
<title>ShoppingCartComponent</title>
<polygon fill="#ffffb3" stroke="#000000" points="509.608,-122 350.392,-122 350.392,-86 509.608,-86 509.608,-122"/>
<text text-anchor="middle" x="430" y="-99.8" font-family="Times,serif" font-size="14.00" fill="#000000">ShoppingCartComponent</text>
</g>
<!-- ShoppingCartComponent&#45;&gt;AppModule -->
<g id="edge13" class="edge">
<title>ShoppingCartComponent&#45;&gt;AppModule</title>
<path fill="none" stroke="#000000" d="M430,-122.0267C430,-142.7672 430,-174 430,-174 430,-174 1157.1176,-174 1157.1176,-174"/>
<polygon fill="#000000" stroke="#000000" points="1157.1176,-177.5001 1167.1176,-174 1157.1175,-170.5001 1157.1176,-177.5001"/>
</g>
<!-- ShoppingcartComponent -->
<g id="node14" class="node">
<title>ShoppingcartComponent</title>
<polygon fill="#ffffb3" stroke="#000000" points="331.986,-122 176.014,-122 176.014,-86 331.986,-86 331.986,-122"/>
<text text-anchor="middle" x="254" y="-99.8" font-family="Times,serif" font-size="14.00" fill="#000000">ShoppingcartComponent</text>
</g>
<!-- ShoppingcartComponent&#45;&gt;AppModule -->
<g id="edge14" class="edge">
<title>ShoppingcartComponent&#45;&gt;AppModule</title>
<path fill="none" stroke="#000000" d="M254,-122.2921C254,-144.2057 254,-178 254,-178 254,-178 1157.0422,-178 1157.0422,-178"/>
<polygon fill="#000000" stroke="#000000" points="1157.0422,-181.5001 1167.0422,-178 1157.0422,-174.5001 1157.0422,-181.5001"/>
</g>
<!-- AppComponent  -->
<g id="node17" class="node">
<title>AppComponent </title>
<polygon fill="#80b1d3" stroke="#000000" points="1263.439,-252 1154.561,-252 1154.561,-216 1263.439,-216 1263.439,-252"/>
<text text-anchor="middle" x="1209" y="-229.8" font-family="Times,serif" font-size="14.00" fill="#000000">AppComponent </text>
</g>
<!-- AppModule&#45;&gt;AppComponent  -->
<g id="edge16" class="edge">
<title>AppModule&#45;&gt;AppComponent </title>
<path fill="none" stroke="#000000" stroke-dasharray="1,5" d="M1209,-187.1061C1209,-187.1061 1209,-205.991 1209,-205.991"/>
<polygon fill="#000000" stroke="#000000" points="1205.5001,-205.9909 1209,-215.991 1212.5001,-205.991 1205.5001,-205.9909"/>
</g>
<!-- AppRoutingModule -->
<g id="node16" class="node">
<title>AppRoutingModule</title>
<polygon fill="#8dd3c7" stroke="#000000" points="152.2744,-122 149.2744,-126 128.2744,-126 125.2744,-122 23.7256,-122 23.7256,-86 152.2744,-86 152.2744,-122"/>
<text text-anchor="middle" x="88" y="-99.8" font-family="Times,serif" font-size="14.00" fill="#000000">AppRoutingModule</text>
</g>
<!-- AppRoutingModule&#45;&gt;AppModule -->
<g id="edge15" class="edge">
<title>AppRoutingModule&#45;&gt;AppModule</title>
<path fill="none" stroke="#000000" d="M88,-122.3228C88,-145.6602 88,-183 88,-183 88,-183 1157.1014,-183 1157.1014,-183"/>
<polygon fill="#000000" stroke="#000000" points="1157.1014,-186.5001 1167.1014,-183 1157.1014,-179.5001 1157.1014,-186.5001"/>
</g>
</g>
</svg>
